<?xml version="1.0" encoding="UTF-8" standalone="no"?>
<!-- Generator: Adobe Illustrator 15.0.0, SVG Export Plug-In  -->

<svg
   xmlns:dc="http://purl.org/dc/elements/1.1/"
   xmlns:cc="http://creativecommons.org/ns#"
   xmlns:rdf="http://www.w3.org/1999/02/22-rdf-syntax-ns#"
   xmlns:svg="http://www.w3.org/2000/svg"
   xmlns="http://www.w3.org/2000/svg"
   xmlns:sodipodi="http://sodipodi.sourceforge.net/DTD/sodipodi-0.dtd"
   xmlns:inkscape="http://www.inkscape.org/namespaces/inkscape"
   version="1.1"
   x="0px"
   y="0px"
   width="165.907"
   height="175.74899"
   viewBox="0 0 165.907 175.74899"
   overflow="visible"
   enable-background="new 0 0 687 176"
   xml:space="preserve"
   id="svg30"
   sodipodi:docname="angularLogo.svg"
   style="overflow:visible"
   inkscape:version="0.92.4 (5da689c313, 2019-01-14)"><metadata
   id="metadata34"><rdf:RDF><cc:Work
       rdf:about=""><dc:format>image/svg+xml</dc:format><dc:type
         rdf:resource="http://purl.org/dc/dcmitype/StillImage" /><dc:title></dc:title></cc:Work></rdf:RDF></metadata><sodipodi:namedview
   pagecolor="#ffffff"
   bordercolor="#666666"
   borderopacity="1"
   objecttolerance="10"
   gridtolerance="10"
   guidetolerance="10"
   inkscape:pageopacity="0"
   inkscape:pageshadow="2"
   inkscape:window-width="1456"
   inkscape:window-height="480"
   id="namedview32"
   showgrid="false"
   inkscape:zoom="0.69109486"
   inkscape:cx="110.57306"
   inkscape:cy="87.749"
   inkscape:window-x="0"
   inkscape:window-y="0"
   inkscape:window-maximized="0"
   inkscape:current-layer="svg30"
   fit-margin-top="0"
   fit-margin-left="0"
   fit-margin-right="0"
   fit-margin-bottom="0" />
<defs
   id="defs2">
</defs>








<path
   d="M 82.688,0 0,29.1 l 13.066,108.335 69.71,38.314 70.069,-38.834 13.062,-108.331 z m 0,0"
   id="path20"
   inkscape:connector-curvature="0"
   style="fill:#b2b2b2" />
<path
   d="M 157.66,34.846 82.496,9.214 v 157.381 l 62.991,-34.861 z m 0,0"
   id="path22"
   inkscape:connector-curvature="0"
   style="fill:#b52e31" />
<path
   d="m 9.279,35.308 11.196,96.889 62.019,34.398 V 9.211 Z m 0,0"
   id="path24"
   inkscape:connector-curvature="0"
   style="fill:#e23237" />
<path
   d="M 99.918,87.493 82.632,51.396 67.415,87.493 Z m 6.59,15.179 h -45.82 l -10.251,25.64 -19.067,0.352 51.126,-113.735 52.908,113.734 h -17.673 z m 0,0"
   id="path26"
   inkscape:connector-curvature="0"
   style="fill:#f2f2f2" />
<path
   d="M 82.496,14.929 82.632,51.396 99.9,87.521 H 82.534 l -0.039,15.127 24.012,0.023 11.223,25.996 18.245,0.339 z m 0,0"
   id="path28"
   inkscape:connector-curvature="0"
   style="fill:#b2b2b2" />
</svg>