<?xml version="1.0" standalone="no"?>
<!DOCTYPE svg PUBLIC "-//W3C//DTD SVG 20010904//EN"
 "http://www.w3.org/TR/2001/REC-SVG-20010904/DTD/svg10.dtd">
<svg version="1.0" xmlns="http://www.w3.org/2000/svg"
 width="700.000000pt" height="700.000000pt" viewBox="0 0 700.000000 700.000000"
 preserveAspectRatio="xMidYMid meet">
<metadata>
Created by potrace 1.11, written by Peter Selinger 2001-2013
</metadata>
<g transform="translate(0.000000,700.000000) scale(0.100000,-0.100000)"
fill="#000000" stroke="none">
<path d="M1091 6420 c-178 -98 -317 -261 -378 -445 -26 -78 -27 -86 -31 -377
l-4 -298 2789 0 2789 0 37 38 37 38 0 500 0 500 -38 37 -38 37 -2554 0 -2555
0 -54 -30z"/>
<path d="M690 4375 l0 -575 973 0 973 0 32 33 32 33 0 505 0 505 -38 37 -38
37 -967 0 -967 0 0 -575z"/>
<path d="M3780 4748 c-120 -17 -246 -95 -307 -191 -45 -72 -53 -131 -53 -404
l0 -252 -149 -117 c-160 -125 -182 -153 -162 -202 7 -16 71 -75 161 -146 l150
-118 0 -299 c0 -386 8 -426 110 -528 58 -58 149 -105 234 -120 33 -6 143 -11
244 -11 170 0 186 2 213 21 29 20 29 21 29 124 0 139 -1 140 -200 140 -112 0
-153 4 -181 17 -70 31 -69 28 -69 363 0 173 -4 316 -10 337 -19 69 -71 130
-158 190 l-84 56 81 57 c163 114 171 136 171 482 0 254 0 254 24 278 35 35 87
45 237 45 123 0 139 2 163 21 25 20 26 24 26 123 0 102 0 102 -30 124 -28 21
-39 22 -202 21 -95 -1 -202 -6 -238 -11z"/>
<path d="M5237 4732 c-25 -26 -27 -34 -27 -119 0 -89 1 -92 30 -117 30 -24 34
-25 173 -23 118 1 149 -2 185 -17 70 -30 72 -39 72 -333 0 -251 1 -259 24
-308 26 -56 62 -92 154 -155 34 -24 62 -46 62 -49 -1 -3 -37 -30 -81 -60 -81
-54 -126 -106 -147 -170 -8 -23 -12 -134 -12 -338 0 -310 -2 -332 -39 -360
-33 -26 -99 -35 -230 -34 -133 1 -135 1 -163 -26 -27 -26 -28 -31 -28 -119 0
-92 0 -92 32 -119 l32 -27 211 4 c176 4 220 8 272 25 117 39 213 118 257 212
20 44 21 63 24 382 l3 336 150 119 c83 65 155 126 160 135 10 20 12 60 4 82
-3 7 -75 67 -160 133 l-154 119 -1 272 c0 250 -2 277 -21 328 -27 72 -101 153
-178 194 -92 49 -168 61 -387 61 l-190 0 -27 -28z"/>
<path d="M690 2805 l0 -575 974 0 975 0 30 37 31 38 0 500 0 501 -38 37 -38
37 -967 0 -967 0 0 -575z"/>
<path d="M688 1623 c-5 -268 1 -343 33 -443 55 -170 212 -351 381 -436 l47
-24 2559 0 2558 0 32 33 32 33 0 510 0 510 -33 32 -33 32 -2786 0 -2786 0 -4
-247z"/>
</g>
</svg>
